<svg width="125" height="32" viewBox="0 0 125 32" fill="none" xmlns="http://www.w3.org/2000/svg">
<g clip-path="url(#clip0_73_181)" filter="url(#filter0_d_73_181)">
<path d="M114.979 21.304C114.611 21.405 114.243 21.4387 113.875 21.4387C113.172 21.4387 112.671 21.2703 112.436 20.9673C112.169 20.6642 112.035 19.9907 112.035 18.9131V13.0873H115.983V10.8985H112.035V7.93506H111.734L107.317 12.8516V13.0873H109.459V19.1151C109.459 20.8999 109.76 22.1459 110.329 22.8194C110.897 23.4929 111.901 23.8296 113.34 23.8296C113.842 23.8296 114.343 23.7623 114.778 23.6613C115.213 23.5602 115.648 23.3919 116.05 23.1898V20.7989C115.715 21.0009 115.347 21.1693 114.979 21.2703V21.304Z" fill="#0064FA"/>
<path d="M101.73 10.7637C99.8895 10.7637 98.4174 11.3698 97.2464 12.5484C96.1088 13.7271 95.54 15.2761 95.54 17.1619C95.54 19.2161 96.1423 20.8998 97.3133 22.1121C98.4843 23.3581 100.09 23.9643 102.064 23.9643C103.001 23.9643 103.938 23.8296 104.808 23.5602C105.711 23.2908 106.548 22.8867 107.384 22.3479V19.8222C106.447 20.4284 105.544 20.8662 104.707 21.1692C103.838 21.4723 103.001 21.607 102.198 21.607C100.994 21.607 100.057 21.2703 99.3542 20.5968C98.6516 19.9233 98.2501 18.9804 98.1832 17.8017H107.618V17.4313C107.618 15.3771 107.083 13.7607 106.012 12.5821C104.942 11.3698 103.503 10.7973 101.696 10.7973L101.73 10.7637ZM98.2166 15.9833C98.3839 14.973 98.7854 14.1985 99.3877 13.6934C99.9899 13.1883 100.759 12.9189 101.73 12.9189C102.6 12.9189 103.336 13.1883 103.904 13.7607C104.473 14.3332 104.808 15.0741 104.908 15.9833H98.2501H98.2166Z" fill="#0064FA"/>
<path d="M88.9488 4.5H86.4395V23.6947H88.9488V4.5Z" fill="#0064FA"/>
<path d="M93.9673 4.5H91.458V23.6947H93.9673V4.5Z" fill="#0064FA"/>
<path d="M36.9556 21.4722C35.6173 21.4722 34.5132 21.0681 33.7102 20.2936C32.8737 19.5191 32.4723 18.5088 32.4723 17.2629C32.4723 16.0169 32.8737 15.0403 33.6767 14.2658C34.4797 13.4913 35.5504 13.0872 36.8218 13.0872C37.424 13.0872 37.9928 13.1882 38.5616 13.3566C39.1303 13.525 39.6991 13.7944 40.3013 14.1311V11.4371C39.7326 11.1677 39.1303 10.9657 38.5616 10.831C37.9593 10.6963 37.3571 10.6289 36.7548 10.6289C34.7808 10.6289 33.108 11.2687 31.8031 12.5147C30.4983 13.7944 29.8291 15.3434 29.8291 17.2292C29.8291 19.115 30.4983 20.7314 31.8031 21.9774C33.108 23.2233 34.8143 23.8295 36.8552 23.8295C37.4574 23.8295 38.0262 23.7621 38.6285 23.6611C39.2307 23.5601 39.8329 23.3917 40.4686 23.156V20.563C39.8999 20.8661 39.3311 21.0681 38.7288 21.2028C38.1266 21.3375 37.5244 21.4049 36.9221 21.4049L36.9556 21.4722Z" fill="#0064FA"/>
<path d="M52.1454 12.5821C51.5097 11.9759 50.7736 11.4708 49.9706 11.134C49.1677 10.7973 48.3312 10.6289 47.4279 10.6289C45.5542 10.6289 43.9817 11.2687 42.6769 12.5484C41.372 13.828 40.7363 15.3771 40.7363 17.2292C40.7363 19.0813 41.372 20.6304 42.6769 21.91C43.9817 23.1897 45.5542 23.8295 47.4279 23.8295C48.3312 23.8295 49.1677 23.6611 49.9706 23.358C50.7736 23.055 51.4762 22.5498 52.1119 21.9437C52.7476 21.3375 53.216 20.5967 53.5841 19.7885C53.9186 18.9803 54.1194 18.1047 54.1194 17.2629C54.1194 16.421 53.9521 15.5455 53.6175 14.7709C53.2829 13.9964 52.7811 13.2556 52.1454 12.6157V12.5821ZM50.2718 20.2599C49.4688 21.1018 48.532 21.5059 47.4279 21.5059C46.3238 21.5059 45.3535 21.1018 44.5505 20.2599C43.7475 19.4181 43.3795 18.4078 43.3795 17.2292C43.3795 16.0506 43.781 15.074 44.5505 14.2321C45.3535 13.3903 46.2903 12.9862 47.4279 12.9862C48.5654 12.9862 49.5022 13.3903 50.3052 14.2321C51.1082 15.074 51.4762 16.0506 51.4762 17.2292C51.4762 18.4078 51.0747 19.4181 50.2718 20.2263V20.2599Z" fill="#0064FA"/>
<path d="M71.8849 10.9321L68.2715 19.3172L64.7584 10.9321H63.119L59.6394 19.3509L56.026 10.9321H53.3828L58.9702 23.8633H60.2082L63.9554 14.6701L67.7027 23.8633H68.9072L74.528 10.9321H71.8849Z" fill="#0064FA"/>
<path d="M84.4653 21.9438C84.298 21.9438 84.1642 21.8428 84.0638 21.6744C83.9969 21.4723 83.9635 21.1693 83.9635 20.7315V15.3772C83.9635 13.7608 83.5954 12.6158 82.8594 11.9087C82.1233 11.2015 80.9523 10.8311 79.3128 10.8311C78.4095 10.8311 77.573 10.9658 76.7701 11.2352C75.9671 11.5046 75.231 11.9087 74.5953 12.4475V14.9394C75.3314 14.3669 76.1009 13.8955 76.837 13.6261C77.5731 13.323 78.3091 13.1883 79.0117 13.1883C79.8482 13.1883 80.4504 13.3567 80.8184 13.6934C81.1865 14.0302 81.3872 14.569 81.3872 15.3435C81.3872 15.4782 81.3872 15.5792 81.3872 15.6466C81.3872 15.7139 81.3872 15.7813 81.3872 15.8823L78.4095 16.8925C77.0043 17.364 75.9671 17.9365 75.2979 18.61C74.5953 19.2835 74.2607 20.058 74.2607 20.9672C74.2607 21.9101 74.5953 22.651 75.231 23.2234C75.8667 23.7622 76.7366 24.0316 77.8742 24.0316C78.5433 24.0316 79.1456 23.9306 79.7143 23.7286C80.2831 23.5265 80.8854 23.2234 81.5211 22.752C81.5545 23.1898 81.6883 23.5265 81.9225 23.7286C82.1568 23.9306 82.5248 24.0316 82.9932 24.0316C83.4616 24.0316 83.9635 23.9306 84.4319 23.7622C84.9003 23.5602 85.3687 23.2908 85.8036 22.8867V21.3376C85.4356 21.6407 85.1345 21.8428 84.9672 21.9101C84.7999 21.9775 84.6326 22.0448 84.4988 22.0448L84.4653 21.9438ZM81.3538 21.1356C80.9523 21.4387 80.5173 21.6744 80.0824 21.8428C79.6474 22.0111 79.2125 22.0785 78.7775 22.0785C78.1753 22.0785 77.7069 21.9438 77.3723 21.6407C77.0377 21.3713 76.8704 20.9672 76.8704 20.4284C76.8704 19.8223 77.205 19.3171 77.8407 18.8794C78.4764 18.4416 79.6474 17.9365 81.3538 17.3977V21.1019V21.1356Z" fill="#0064FA"/>
<path d="M5.53913 18.7782C7.31238 18.6098 9.11909 18.5425 10.8924 18.4078C9.42021 19.4854 8.01499 20.563 6.57631 21.5395C5.94062 21.9773 5.57258 22.4824 5.94062 23.1559C6.00753 23.4927 6.5094 23.8968 6.84397 23.9641C7.14509 24.0315 7.58004 23.7621 7.88116 23.5264C9.65442 22.2467 11.4277 20.9671 13.3682 19.5527C13.6359 22.0447 13.8701 24.3009 14.1712 26.5234C14.2381 26.8939 14.6396 27.3653 15.0076 27.5C15.3422 27.601 15.911 27.3653 16.1452 27.0959C16.3459 26.8602 16.3125 26.3214 16.279 25.951C16.1452 24.4693 15.9779 22.9876 15.7772 21.4385C16.5802 22.5835 17.4166 23.7621 18.1861 24.9407C18.6545 25.6816 19.2568 25.8836 19.8925 25.4458C20.5951 24.9744 20.4612 24.3346 19.9594 23.6611C19.1564 22.5498 18.3534 21.3712 17.517 20.1589C18.9891 20.7987 20.3943 21.4048 21.833 22.011C22.1676 22.1457 22.6694 22.2804 22.9371 22.1457C23.2382 21.9773 23.5728 21.5395 23.5728 21.2028C23.807 20.4956 23.3721 20.0578 22.636 19.7548C21.2308 19.1823 19.8255 18.5761 18.32 17.9026C19.9594 17.8016 21.465 17.7006 23.004 17.5322C23.4055 17.4985 23.9074 17.1618 24.0747 16.7914C24.2085 16.4883 24.0747 15.8822 23.807 15.6128C23.6063 15.377 23.0709 15.3434 22.7029 15.377C21.3646 15.4444 20.0597 15.5454 18.6545 15.6464C19.7921 14.8046 20.8627 14.03 21.9334 13.2892C22.5691 12.8514 22.9036 12.3126 22.5022 11.6728C22.4018 11.3697 22.0003 10.9993 21.6657 10.8983C21.465 10.8309 21.1973 10.8983 20.9631 11.0666L15.0746 15.3097L14.8069 12.9188C14.6396 11.4707 14.4723 10.0564 14.305 8.64203C14.2716 8.27161 14.1712 7.73281 13.937 7.56444C13.6359 7.36239 13.0336 7.26136 12.7325 7.42974C12.3979 7.63179 12.0968 8.20426 12.1303 8.57468C12.2641 10.0227 12.3979 11.5044 12.5987 13.0198C11.7288 11.7401 10.8589 10.5278 10.0225 9.31553C9.78825 9.01246 9.48713 8.57468 9.18601 8.54101C8.81798 8.50733 8.21574 8.70938 8.04845 8.97878C7.8477 9.31553 7.88116 9.95536 8.04845 10.2584C9.01872 11.8075 10.0894 13.2892 11.1266 14.7709C9.5875 14.0974 8.11536 13.4576 6.64323 12.8514C6.27519 12.7167 5.80679 12.5147 5.50567 12.6494C5.17109 12.8177 4.7696 13.2892 4.80306 13.6259C4.56885 14.3668 5.07072 14.7709 5.77333 15.074C6.7436 15.4781 7.71387 15.8822 8.7176 16.3199C7.58004 16.421 6.44248 16.4883 5.30492 16.5557C4.50194 16.5893 3.86624 16.8251 3.8997 17.7006C3.93316 18.5761 4.5354 18.8455 5.43875 18.7782H5.53913Z" fill="#0064FA"/>
<path d="M118.893 10.9321V11.1342H118.458V12.2791H118.191V11.1342H117.756V10.9321H118.86H118.893ZM119.563 10.9321L119.931 11.875L120.265 10.9321H120.633V12.2455H120.399V11.1342L119.998 12.2455H119.864L119.429 11.1342V12.2455H119.195V10.9321H119.563V10.9321Z" fill="#0064FA"/>
</g>
<defs>
<filter id="filter0_d_73_181" x="0" y="0.5" width="124.634" height="31" filterUnits="userSpaceOnUse" color-interpolation-filters="sRGB">
<feFlood flood-opacity="0" result="BackgroundImageFix"/>
<feColorMatrix in="SourceAlpha" type="matrix" values="0 0 0 0 0 0 0 0 0 0 0 0 0 0 0 0 0 0 127 0" result="hardAlpha"/>
<feMorphology radius="4" operator="dilate" in="SourceAlpha" result="effect1_dropShadow_73_181"/>
<feOffset/>
<feComposite in2="hardAlpha" operator="out"/>
<feColorMatrix type="matrix" values="0 0 0 0 1 0 0 0 0 1 0 0 0 0 1 0 0 0 0.01 0"/>
<feBlend mode="normal" in2="BackgroundImageFix" result="effect1_dropShadow_73_181"/>
<feBlend mode="normal" in="SourceGraphic" in2="effect1_dropShadow_73_181" result="shape"/>
</filter>
<clipPath id="clip0_73_181">
<rect width="116.633" height="23" fill="white" transform="translate(4 4.5)"/>
</clipPath>
</defs>
</svg>
