<svg width="59" height="57" viewBox="0 0 59 57" fill="none" xmlns="http://www.w3.org/2000/svg">
<g filter="url(#filter0_d_74_209)">
<path d="M5.55683 32.2961C10.5673 31.8205 15.6724 31.6302 20.6829 31.2497C16.5232 34.2936 12.5526 37.3375 8.48751 40.0961C6.69128 41.3326 5.65137 42.7595 6.69128 44.6619C6.88036 45.6131 8.29843 46.7546 9.24381 46.9448C10.0947 47.135 11.3236 46.3741 12.1745 45.7082C17.185 42.0936 22.1955 38.479 27.6787 34.4839C28.435 41.5229 29.0968 47.896 29.9476 54.174C30.1367 55.2204 31.2712 56.5521 32.3111 56.9326C33.2565 57.2179 34.8636 56.5521 35.5254 55.7911C36.0926 55.1253 35.9981 53.6033 35.9035 52.557C35.5254 48.3716 35.0527 44.1863 34.4855 39.8107C36.7544 43.0448 39.1178 46.3741 41.2922 49.7033C42.6157 51.796 44.3174 52.3667 46.1136 51.1301C48.0989 49.7984 47.7208 47.9911 46.3027 46.0887C44.0338 42.9497 41.7649 39.6204 39.4014 36.1961C43.5611 38.0034 47.5317 39.7156 51.5968 41.4278C52.5422 41.8082 53.9603 42.1887 54.7166 41.8082C55.5674 41.3326 56.5128 40.0961 56.5128 39.1448C57.1746 37.1473 55.9456 35.9107 53.8657 35.0546C49.8952 33.4375 45.9246 31.7254 41.6703 29.8229C46.3027 29.5376 50.5569 29.2522 54.9057 28.7766C56.0401 28.6815 57.4582 27.7303 57.9309 26.6839C58.309 25.8278 57.9309 24.1156 57.1746 23.3547C56.6074 22.6888 55.0947 22.5937 54.0548 22.6888C50.2733 22.8791 46.5863 23.1644 42.6157 23.4498C45.83 21.0717 48.8552 18.8839 51.8805 16.7913C53.6767 15.5547 54.6221 14.0327 53.4876 12.2254C53.204 11.3693 52.0695 10.323 51.1241 10.0376C50.5569 9.8474 49.8006 10.0376 49.1388 10.5133L32.5002 22.4986L31.7439 15.7449C31.2712 11.6547 30.7985 7.6596 30.3258 3.6645C30.2312 2.61816 29.9476 1.09622 29.2859 0.620611C28.435 0.0498813 26.7333 -0.235484 25.8825 0.240124C24.9371 0.810853 24.0863 2.42792 24.1808 3.47426C24.559 7.56448 24.9371 11.7498 25.5043 16.0303C23.0464 12.4157 20.5884 8.99131 18.2249 5.56693C17.5632 4.71084 16.7123 3.47426 15.8615 3.37914C14.8216 3.28401 13.1199 3.85474 12.6472 4.61572C12.08 5.56693 12.1745 7.37424 12.6472 8.23033C15.3888 12.6059 18.414 16.7913 21.3447 20.9766C16.9959 19.0742 12.8363 17.2669 8.67658 15.5547C7.63666 15.1742 6.31313 14.6035 5.46229 14.984C4.51691 15.4596 3.38245 16.7913 3.47699 17.7425C2.81523 19.8352 4.2333 20.9766 6.21859 21.8327C8.9602 22.9742 11.7018 24.1156 14.5379 25.3522C11.3236 25.6376 8.10935 25.8278 4.89506 26.0181C2.62615 26.1132 0.829928 26.779 0.924466 29.2522C1.019 31.7254 2.72069 32.4863 5.27321 32.2961H5.55683Z" fill="#162461"/>
</g>
<defs>
<filter id="filter0_d_74_209" x="0.920898" y="0" width="57.1582" height="57" filterUnits="userSpaceOnUse" color-interpolation-filters="sRGB">
<feFlood flood-opacity="0" result="BackgroundImageFix"/>
<feColorMatrix in="SourceAlpha" type="matrix" values="0 0 0 0 0 0 0 0 0 0 0 0 0 0 0 0 0 0 127 0" result="hardAlpha"/>
<feOffset/>
<feComposite in2="hardAlpha" operator="out"/>
<feColorMatrix type="matrix" values="0 0 0 0 1 0 0 0 0 1 0 0 0 0 1 0 0 0 0.01 0"/>
<feBlend mode="normal" in2="BackgroundImageFix" result="effect1_dropShadow_74_209"/>
<feBlend mode="normal" in="SourceGraphic" in2="effect1_dropShadow_74_209" result="shape"/>
</filter>
</defs>
</svg>
